<?xml version="1.0"?>
<svg xmlns="http://www.w3.org/2000/svg" viewBox="0 0 512 512" width="512" height="512"><g id="Fill_out_line" data-name="Fill out line"><polygon points="58.154 183.231 80 216 88 208 104 216 112 208 144 208 144 176 120 160 72 152 56 176 58.154 183.231" style="fill:#fdc5ca"/><path d="M488,376H440v-7.96556a13,13,0,0,1,7.18622-11.62755L456,352v-8l-80-16-64-24-2.85986-1.14014A302.82633,302.82633,0,0,1,240,264l3.47-10.3999L256,216a74.51609,74.51609,0,0,1,59.45,10.3L336,240l34.26,28.5498A85.60319,85.60319,0,0,1,392,296a66.575,66.575,0,0,1,57.76,12.60986L464,320l8-8h16Z" style="fill:#fdc5ca"/><path d="M256,216l-12.53,37.6001L240,264l-24-8H176l-41.14014-20.57007L136,232l-6.37012-6.37012A32.87133,32.87133,0,0,1,120,202.37988v-.77978A32.89389,32.89389,0,0,1,134.64014,174.24l1.07983-.72A32.86438,32.86438,0,0,1,153.96,168h8.2A65.53918,65.53918,0,0,1,201.47,181.1001L216,192Z" style="fill:#e04446"/><path d="M120,160a28.82966,28.82966,0,0,1-40,8L64.59009,187.26,60.22,192.73a17.51125,17.51125,0,0,1-26.05005,1.43994L24,184l6.82007-7.95L72,128Z" style="fill:#ba8b5d"/><path d="M64.59009,187.26,60.22,192.73a17.51125,17.51125,0,0,1-26.05005,1.43994L24,184l6.82007-7.95.05981-.05L41.04,186.16992A17.494,17.494,0,0,0,64.59009,187.26Z" style="fill:#9f764a"/><path d="M181.48,321.16992l-4.04,40.41992A16.00193,16.00193,0,0,1,161.52,376H104a19.30882,19.30882,0,0,1,5.65991-13.66016l4.68018-4.67968A19.3064,19.3064,0,0,1,128,352h24l-11.65991-46.6499A48.4144,48.4144,0,0,1,144,272a36.57507,36.57507,0,0,1-8.84009-37.47L136,232l-4.68994-4.68994A38.63351,38.63351,0,0,1,120,200l40.12012,7.5,3.75976,9.37988C167.81006,226.71,178.04,229.55005,178.78,240q.25488,3.62988.26,7.27A102.16211,102.16211,0,0,1,176,272,118.3193,118.3193,0,0,1,181.48,321.16992Z" style="fill:#fdc5ca"/><path d="M135.15991,234.53,136,232l-4.68994-4.68994A38.63351,38.63351,0,0,1,120,200h48l3.75,9.37012A101.73684,101.73684,0,0,1,178.78,240H133.79A36.79591,36.79591,0,0,1,135.15991,234.53Z" style="fill:#e04446"/><path d="M336,240l-19.21,51.23L312,304l-2.85986-1.14014A302.82633,302.82633,0,0,1,240,264l3.47-10.3999L256,216a74.51609,74.51609,0,0,1,59.45,10.3Z" style="fill:#68737f"/><path d="M488,312v64H440v-7.97021a13.028,13.028,0,0,1,7.18994-11.61963L456,352v-8l8-24,8-8Z" style="fill:#529ddf"/><path d="M488,304H472a8.00235,8.00235,0,0,0-5.65723,2.34277l-2.93652,2.9375-8.65137-6.92187a75.08671,75.08671,0,0,0-58.5459-15.37988,92.87918,92.87918,0,0,0-20.83007-24.57618l-34.25782-28.54785a7.92277,7.92277,0,0,0-.68359-.51074l-20.55469-13.70313a82.73808,82.73808,0,0,0-62.51367-12.14916l-36.89941-22.13892-13.98047-10.48633A74.8025,74.8025,0,0,0,161.88867,160h-7.68359a41.58593,41.58593,0,0,0-15.36768,2.94385l-14.3999-9.6001-48-32a8.00113,8.00113,0,0,0-10.51172,1.4502l-48,56a8.00078,8.00078,0,0,0,.417,10.86328l10.168,10.168a25.54478,25.54478,0,0,0,18.042,7.4707q.70167,0,1.40723-.03906a25.52138,25.52138,0,0,0,13.43775-4.73829l11.946,17.91895a8.00073,8.00073,0,0,0,12.31348,1.21973l3.92285-3.92285,10.8418,5.42089a8.00133,8.00133,0,0,0,9.23535-1.498l4.98217-4.98316a41.579,41.579,0,0,0,9.57544,14.85523l2.67774,2.67773a44.30059,44.30059,0,0,0,7.73633,39.24805,56.39622,56.39622,0,0,0-2.05079,33.83984L141.75391,344H128a27.13564,27.13564,0,0,0-19.31445,8L104,356.68555A27.13564,27.13564,0,0,0,96,376a8.00039,8.00039,0,0,0,8,8h57.52051a23.92245,23.92245,0,0,0,23.87988-21.6123l4.042-40.41895a125.40451,125.40451,0,0,0-5.13965-50.293q.87306-3.82909,1.47071-7.67578h28.92871l21.57007,7.19043A310.54405,310.54405,0,0,0,306.168,310.2832l2.86133,1.14453c.05371.02149.10742.043.16211.0625l64,24a8.01358,8.01358,0,0,0,1.23925.3545l68.583,13.71679A20.87643,20.87643,0,0,0,432,368.03418V376a8.00039,8.00039,0,0,0,8,8h48a8.00039,8.00039,0,0,0,8-8V312A8.00039,8.00039,0,0,0,488,304ZM311.00781,232.95312l15.27295,10.18238-18.884,50.35766a294.55244,294.55244,0,0,1-57.96265-32.4956l12.709-38.1272A66.70352,66.70352,0,0,1,311.00781,232.95312ZM53.97266,187.72754a9.50763,9.50763,0,0,1-14.14746.7832L34.89551,183.582l38.56543-44.99316L107.57812,161.333a20.87385,20.87385,0,0,1-23.14062.01074,8.00158,8.00158,0,0,0-10.68457,1.6582L53.97266,187.72656ZM112.06323,200H112a8.00235,8.00235,0,0,0-5.65723,2.34277l-3.92285,3.92285-10.8418-5.42089a8.00182,8.00182,0,0,0-9.23535,1.498l-1.09961,1.10059-8.79663-13.19531,9.6814-12.10157a36.8887,36.8887,0,0,0,39.36133-7.53906l2.80371,1.86939A41.58011,41.58011,0,0,0,112.06323,200Zm61.45923,120.377-4.042,40.41895a7.97506,7.97506,0,0,1-7.96,7.2041H115.31445L120,363.31445A11.23593,11.23593,0,0,1,128,360h24a8,8,0,0,0,7.76074-9.94043l-11.66113-46.64551a40.38928,40.38928,0,0,1,3.05566-27.83691,8.00033,8.00033,0,0,0-1.498-9.23438A28.45846,28.45846,0,0,1,141.33252,248h29.73267a94.28964,94.28964,0,0,1-2.82593,22.05957,8.00353,8.00353,0,0,0,.1709,4.46973A109.56813,109.56813,0,0,1,173.52246,320.377Zm45.00781-71.96679A8.0151,8.0151,0,0,0,216,248H187.07324a109.50242,109.50242,0,0,0-7.89551-41.59766l-3.75-9.374-14.85546,5.94336,3.75,9.37305A94.41155,94.41155,0,0,1,169.80542,232h-25.821a7.98669,7.98669,0,0,0-2.32715-5.65723l-6.12793-6.12793a25.705,25.705,0,0,1,3.91406-39.5625l.50293-.335A25.62943,25.62943,0,0,1,154.20508,176h7.68359a58.70853,58.70853,0,0,1,35.001,11.666l14.31055,10.73437c.21972.16406.44824.31836.68359.46l34.49707,20.69824-11.44043,34.32227Zm159.67285,71.87207-55.9038-20.96436,17.23462-45.95923,25.60278,21.33472a77.06494,77.06494,0,0,1,19.708,24.88476,8.00212,8.00212,0,0,0,9.0957,4.18262,58.94761,58.94761,0,0,1,50.81934,11.0918l9.88647,7.90918L450.64331,334.77ZM480,368H448a4.97274,4.97274,0,0,1,2.76465-4.4375L457.88892,360H472V344h-7.56665l6.55933-19.67871L475.31348,320H480Z"/></g></svg>
