<?xml version="1.0"?>
<svg xmlns="http://www.w3.org/2000/svg" viewBox="0 0 512 512" width="512" height="512"><g id="Fill_out_line" data-name="Fill out line"><polygon points="232 104 288 144 248 184 232 104" style="fill:#fdc5ca"/><path d="M232,104l-24,24-8-40H184l-8-16h-8l8-24a23.96167,23.96167,0,0,1,7.03-16.97,23.5998,23.5998,0,0,1,3.16-2.65015A23.859,23.859,0,0,1,200,24h5.26a24.00278,24.00278,0,0,1,23.28,18.17993A38.53286,38.53286,0,0,1,225.63,68.74L224,72Z" style="fill:#fdc5ca"/><path d="M229.69,51.53a38.49068,38.49068,0,0,1-4.06,17.21L224,72a108.512,108.512,0,0,1-36.9-41.8l-.91-1.82007A23.859,23.859,0,0,1,200,24h5.26a24.00278,24.00278,0,0,1,23.28,18.17993A38.54406,38.54406,0,0,1,229.69,51.53Z" style="fill:#ba8b5d"/><path d="M237.65642,28.58589h0a18.02913,18.02913,0,0,1,22.05172,13.955v0a72.278,72.278,0,0,0,19.76615,36.93339L288,88l-32.36662-6.47332a39.35076,39.35076,0,0,1-14.11052-5.84477L238.913,73.942A33.4899,33.4899,0,0,1,224,46.07675v0A18.02915,18.02915,0,0,1,237.65642,28.58589Z" style="fill:#9f764a"/><path d="M368,416l-16,8-72-64-29.17-54.17993L237.58,281.21l-14.32,7.16016L176,312l24,24,8,56-16,8-56-88a275.07139,275.07139,0,0,1,59.84-69.85986L208,232V208h48l2.13.8501A48.98883,48.98883,0,0,1,288,264a267.32417,267.32417,0,0,1,23.02,67.08008L312,336a84.26513,84.26513,0,0,1,50.45,57.79Z" style="fill:#68737f"/><path d="M400,432l-32,56H328a25.92511,25.92511,0,0,1,14.31-23.16016L344,464l3.2-16,4.8-24,16-8,17.67,8.83008Z" style="fill:#529ddf"/><path d="M240,424l-72,40a30.878,30.878,0,0,1,1.92-30.87988L192,400l16-8Z" style="fill:#529ddf"/><path d="M200,168l-13.83706-10.37779a24,24,0,0,1-5.56921-32.51281l10.93937-16.409A28.52089,28.52089,0,0,1,215.26392,96h0a28.52089,28.52089,0,0,1,28.23424,24.48743L256,208H208Z" style="fill:#e04446"/><path d="M200,144l5.58732-33.5239A17.32418,17.32418,0,0,1,222.67578,96h0A17.32418,17.32418,0,0,1,240,113.32418v4.54312a17.3243,17.3243,0,0,1-.51726,4.20173L224,184H200l-56-16h-8l-24-8,8-32,32,8v8h48l8,8" style="fill:#fdc5ca"/><path d="M407.65674,429.68164a7.99933,7.99933,0,0,0-4.0791-4.83691L374.869,410.49023l-4.659-18.63574a92.51741,92.51741,0,0,0-51.19043-61.54883l-.1582-.793a275.26326,275.26326,0,0,0-22.53223-66.71485,57.05167,57.05167,0,0,0-33.05542-60.44995l-2.78839-19.51929,33.17145-33.17138a8.00025,8.00025,0,0,0-1.00684-12.167l-46.2594-33.04248a25.44686,25.44686,0,0,0-8.95208-11.68042L234.379,80.53027c.03314.02222.06439.04712.09759.06934l2.60791,1.73828a47.10123,47.10123,0,0,0,16.98,7.0332l32.3667,6.47364a8.00033,8.00033,0,0,0,7.22559-13.502l-8.52588-8.52539a64.07849,64.07849,0,0,1-17.57813-32.84472,26.01383,26.01383,0,0,0-40.353-16.27906A31.94181,31.94181,0,0,0,205.26123,16H200a32.04052,32.04052,0,0,0-31.97021,30.6123l-7.61915,22.85743A8.00022,8.00022,0,0,0,168,80h3.05566l5.78907,11.57812A7.99967,7.99967,0,0,0,184,96h8.44226a36.56941,36.56941,0,0,0-7.56531,8.2627L173.9375,120.67188A32.07,32.07,0,0,0,168.66467,136H160a7.9992,7.9992,0,0,0-6.05957-7.76074l-32-8a7.99936,7.99936,0,0,0-9.70166,5.82031l-8,32a8.00087,8.00087,0,0,0,5.23144,9.53027l24,8A8.0122,8.0122,0,0,0,136,176h6.87939L196.506,191.322,200,208.793v19.46l-9.28613,7.73828a282.69051,282.69051,0,0,0-61.57373,71.89258,8.00087,8.00087,0,0,0,.11035,8.41113l53.20245,83.604L163.2666,428.67871a38.90832,38.90832,0,0,0-2.42187,38.89941,8,8,0,0,0,11.04052,3.415l72-40a8,8,0,0,0,1.77149-12.65039l-30.11444-30.1145-7.62287-53.36011a8.00181,8.00181,0,0,0-2.26269-4.52539l-16.15137-16.15136,44.70593-22.353L272.95605,363.793a8.0043,8.0043,0,0,0,1.729,2.18652l68.57019,60.95117-6.348,31.74024A33.6835,33.6835,0,0,0,320,488a8.00008,8.00008,0,0,0,8,8h40a7.99863,7.99863,0,0,0,6.9458-4.03125l32-56A7.99906,7.99906,0,0,0,407.65674,429.68164ZM214.55859,200l-1.59991-8H224a8.00005,8.00005,0,0,0,7.76123-6.05957l8.27661-33.10645,6.738,47.166Zm43.09827-36.9707-4.91138-34.38013,22.92005,16.37134ZM247.39209,37.60156a9.94159,9.94159,0,0,1,4.47119,6.50879A80.02217,80.02217,0,0,0,265.47021,75.335l-8.26806-1.65332a31.17049,31.17049,0,0,1-11.24268-4.65723l-2.6084-1.73828a25.61246,25.61246,0,0,1-6.61254-6.41528,46.52985,46.52985,0,0,0-.43238-20.63257c-.16607-.66431-.35858-1.31616-.56384-1.96118a9.987,9.987,0,0,1,11.64978-.67554ZM205.26123,32a15.97655,15.97655,0,0,1,15.52246,12.11914,30.52646,30.52646,0,0,1-.17444,15.4353,100.86663,100.86663,0,0,1-23.31091-27.30835A15.99827,15.99827,0,0,1,200,32Zm2.5835,54.43164A7.99988,7.99988,0,0,0,200,80H188.94434l-5.78907-11.57812A7.99892,7.99892,0,0,0,178.916,64.5498l4.67334-14.01953A8.00643,8.00643,0,0,0,184,48a15.89289,15.89289,0,0,1,.92188-5.30151,116.844,116.844,0,0,0,32.04833,34.16772l2.82856,11.31348c-.16681.0188-.3313.04516-.49713.06714a35.16858,35.16858,0,0,0-11.00873.426ZM187.25,129.54688l9.39819-14.09742L193.22314,136h-8.47448A15.92323,15.92323,0,0,1,187.25,129.54688ZM144,160h-6.70166l-15.74023-5.24707,4.26269-17.05176L144,142.24609V144a8.00008,8.00008,0,0,0,8,8h44.68652l5.65674,5.65723,11.31348-11.31446-5.08887-5.08886,4.91065-29.46192A9.32411,9.32411,0,0,1,232,113.32422v4.543a9.33855,9.33855,0,0,1-.27832,2.26172L217.75391,176h-16.6333l-54.92286-15.69238A8.00533,8.00533,0,0,0,144,160Zm28.83545,292.16211a22.86074,22.86074,0,0,1,3.74365-14.6084l20.89868-31.34863,8.94239-4.47119,20.42358,20.42334ZM231.044,252.207l-14.0879,7.58594,9.66633,17.95166-54.2,27.1001a8.00038,8.00038,0,0,0-2.0791,12.8125l22.11426,22.11425,6.80762,47.65137-4.38965,2.19531L145.43066,311.919A266.67079,266.67079,0,0,1,200.957,248.28223l12.16455-10.13672A7.99975,7.99975,0,0,0,216,232V216h38.4585l.6958.27832a41.04269,41.04269,0,0,1,25.001,46.15234,8.00221,8.00221,0,0,0,.68946,5.14746,259.22043,259.22043,0,0,1,22.32715,65.07227l.98339,4.918a7.99968,7.99968,0,0,0,4.87354,5.85937,76.45525,76.45525,0,0,1,45.65868,52.30762l3.99513,15.97949-5.416,2.707-66.894-59.46094ZM363.35742,480h-25.4873a17.816,17.816,0,0,1,8.01953-8l1.689-.84473a8.0027,8.0027,0,0,0,4.26612-5.58593l7.23278-36.16407,8.92255-4.46118,20.85834,10.429Z"/></g></svg>
