<?xml version="1.0"?>
<svg xmlns="http://www.w3.org/2000/svg" viewBox="0 0 512 512" width="512" height="512"><g id="Fill_out_line" data-name="Fill out line"><polygon points="432 168 416 184 384 192 392 208 384 224 400 248 400 272 432 264 456 224 432 168" style="fill:#fdc5ca"/><path d="M424,152l-5.87375,5.87375a16,16,0,0,0-1.18019,21.30883l0,0a63.33,63.33,0,0,1,9.348,63.08212L424,248l48-40Z" style="fill:#ba8b5d"/><path d="M72,312l66.32766-126.62553a32,32,0,0,1,52.42906-6.22393L272,272v80h0a79.99992,79.99992,0,0,1-70.58816-42.3529L160,232l-4.77472,23.87361a28.339,28.339,0,0,1-18.8271,21.327h0a28.339,28.339,0,0,0-13.70962,9.88134L104,312l-16,8Z" style="fill:#fdc5ca"/><path d="M104,312v40H24a33.22874,33.22874,0,0,1,6.28-19.47,33.31906,33.31906,0,0,1,16.49-12.12L72,312Z" style="fill:#529ddf"/><path d="M272,352H241.75636A56,56,0,0,1,199.238,332.44432L168,296l62.99213-70.86614L272,272Z" style="fill:#68737f"/><path d="M486.21,229.11a16.68758,16.68758,0,0,1-.49,4.02A85.19134,85.19134,0,0,1,463.33,272.67l-16.25,16.25a180.09763,180.09763,0,0,1-52.79,36.59l-22.8,10.36A179.995,179.995,0,0,1,297.01,352H272V272l72-8,40-16h24l24.47-15.29L460.79,215.01a16.60935,16.60935,0,0,1,25.42,14.1Z" style="fill:#e04446"/><path d="M486.21,229.11a16.68758,16.68758,0,0,1-.49,4.02A85.19134,85.19134,0,0,1,463.33,272.67l-2.53,2.53L432.47,232.71,460.79,215.01a16.60935,16.60935,0,0,1,25.42,14.1Z" style="fill:#fdc5ca"/><path d="M487.00391,211.69043a24.74792,24.74792,0,0,0-7.11609-4.96631,7.996,7.996,0,0,0-1.8136-3.93066l-48-56a8.00008,8.00008,0,0,0-11.731-.4502l-5.87353,5.87354a23.96485,23.96485,0,0,0-5.35315,25.75793l-25.057,6.264a8.00006,8.00006,0,0,0-5.21484,11.33887L383.05566,208l-6.21093,12.42236a7.99823,7.99823,0,0,0,.499,8.01514L385.05206,240H384a8.00164,8.00164,0,0,0-2.97119.57227L342.03711,256.169,275.269,263.5874l-78.4917-89.70508a39.99967,39.99967,0,0,0-65.53613,7.78028L66.41034,305.4306l-22.17157,7.39069A41.24469,41.24469,0,0,0,16,352a7.99977,7.99977,0,0,0,8,8h80a7.99977,7.99977,0,0,0,8-8V314.66632l17.08838-22.78448a20.25067,20.25067,0,0,1,9.83935-7.0918,36.41645,36.41645,0,0,0,24.14209-27.34766l.39063-1.9541,11.1925,20.98529-12.63244,14.21149a7.99982,7.99982,0,0,0-.09473,10.521l31.23779,36.44483A63.92892,63.92892,0,0,0,241.75635,360h55.2539a186.74822,186.74822,0,0,0,77.79541-16.85107l22.79053-10.35938a187.36577,187.36577,0,0,0,55.14063-38.21289l16.249-16.249a93.13186,93.13186,0,0,0,24.49365-43.26026A24.74132,24.74132,0,0,0,487.00391,211.69043ZM423.55273,163.771l36.53437,42.62371a25.01114,25.01114,0,0,0-3.53632,1.827L438.7923,219.32074a71.74227,71.74227,0,0,0-15.59943-45.13568A7.99184,7.99184,0,0,1,423.55273,163.771Zm-30.32128,59.65429,5.92382-11.84765a7.99742,7.99742,0,0,0,0-7.15528l-3.54-7.08007,20.42872-5.10694a55.70334,55.70334,0,0,1,5.59417,37.80676L405.70557,240h-1.42432ZM96,344H33.292a25.26427,25.26427,0,0,1,16.00635-16l24-8H96Zm71.05859-115.76465a7.99989,7.99989,0,0,0-14.90332,2.1958l-4.7749,23.87354a20.38244,20.38244,0,0,1-13.51221,15.30664,36.17253,36.17253,0,0,0-17.57959,12.6709L100.00024,304h-14.779l60.19281-114.91357a24.00075,24.00075,0,0,1,39.32227-4.668l35.58917,40.67346-34.33954,38.632ZM205.312,327.23828,178.61865,296.0957l52.32624-58.86731L264,275.0058V344H241.75635A47.94512,47.94512,0,0,1,205.312,327.23828Zm185.66358-9.01465-22.791,10.35938A170.85417,170.85417,0,0,1,297.01025,344H280V279.1604l64.8833-7.20923a8.00767,8.00767,0,0,0,2.08789-.52344L385.54053,256h9.51538l-10.21118,20.42236,14.31054,7.15528,14.99366-29.98682,15.97436-9.984,20.38257,30.57379-9.08252,9.08252A171.41843,171.41843,0,0,1,390.97559,318.22363ZM477.957,231.187a77.12646,77.12646,0,0,1-16.0625,31.233l-18.19769-27.29657L465.03027,221.79a8.61691,8.61691,0,0,1,12.92676,9.397Z"/></g></svg>
